<svg width="12" height="13" viewBox="0 0 12 13" fill="none" xmlns="http://www.w3.org/2000/svg">
<path d="M11.5247 2.10793C11.7841 2.10793 12 2.31788 12 2.58502V2.83202C12 3.09267 11.7841 3.30912 11.5247 3.30912H0.475902C0.215907 3.30912 0 3.09267 0 2.83202V2.58502C0 2.31788 0.215907 2.10793 0.475902 2.10793H2.41971C2.81457 2.10793 3.1582 1.83428 3.24703 1.44819L3.34882 1.00489C3.50702 0.401046 4.02766 0 4.62351 0H7.37649C7.96585 0 8.49233 0.401046 8.64469 0.97304L8.75362 1.44754C8.8418 1.83428 9.18543 2.10793 9.58094 2.10793H11.5247Z" fill="#F73131"/>
<path d="M10.5372 11.1371C10.7402 9.29309 11.0955 4.91213 11.0955 4.86793C11.1084 4.73403 11.0637 4.60728 10.9749 4.50523C10.8796 4.40969 10.759 4.35314 10.626 4.35314H1.37901C1.24545 4.35314 1.11837 4.40969 1.03019 4.50523C0.940718 4.60728 0.896628 4.73403 0.903112 4.86793C0.904303 4.87605 0.917053 5.03037 0.938367 5.28836C1.03305 6.43446 1.29678 9.62661 1.46719 11.1371C1.58779 12.2499 2.33665 12.9493 3.42137 12.9746C4.25842 12.9935 5.12075 13 6.00253 13C6.83309 13 7.67662 12.9935 8.53959 12.9746C9.66192 12.9558 10.4101 12.2688 10.5372 11.1371Z" fill="#F73131"/>
</svg>
