<svg width="18" height="23" viewBox="0 0 18 23" fill="none" xmlns="http://www.w3.org/2000/svg">
<path d="M13.5 2.5875C13.5 4.0135 12.3638 5.175 10.9688 5.175H7.03125C6.33375 5.175 5.70375 4.8875 5.2425 4.416C4.78125 3.9445 4.5 3.3005 4.5 2.5875C4.5 1.1615 5.63625 0 7.03125 0H10.9688C11.6663 0 12.2963 0.2875 12.7575 0.759C13.2188 1.2305 13.5 1.8745 13.5 2.5875Z" fill="white"/>
<path d="M16.6838 3.48449C16.425 3.26599 16.1325 3.09349 15.8175 2.96699C15.4912 2.84049 15.165 3.10499 15.0975 3.44999C14.715 5.41649 13.0162 6.89999 10.9688 6.89999H7.03125C5.90625 6.89999 4.84875 6.45149 4.05 5.63499C3.465 5.03699 3.06 4.27799 2.9025 3.46149C2.835 3.11649 2.4975 2.84049 2.17125 2.97849C0.86625 3.51899 0 4.73799 0 7.18749V18.4C0 21.85 2.01375 23 4.5 23H13.5C15.9862 23 18 21.85 18 18.4V7.18749C18 5.31299 17.4937 4.16299 16.6838 3.48449ZM4.5 11.7875H9C9.46125 11.7875 9.84375 12.1785 9.84375 12.65C9.84375 13.1215 9.46125 13.5125 9 13.5125H4.5C4.03875 13.5125 3.65625 13.1215 3.65625 12.65C3.65625 12.1785 4.03875 11.7875 4.5 11.7875ZM13.5 18.1125H4.5C4.03875 18.1125 3.65625 17.7215 3.65625 17.25C3.65625 16.7785 4.03875 16.3875 4.5 16.3875H13.5C13.9613 16.3875 14.3438 16.7785 14.3438 17.25C14.3438 17.7215 13.9613 18.1125 13.5 18.1125Z" fill="white"/>
</svg>
