<svg width="38" height="38" viewBox="0 0 38 38" fill="none" xmlns="http://www.w3.org/2000/svg">
<circle cx="18.5" cy="19.5" r="15.5" fill="white"/>
<path d="M16.2035 22.7756C16.7173 23.1585 17.2321 23.5426 17.7475 23.9264C17.2096 24.457 16.6708 24.9882 16.1345 25.5185C16.0845 25.5698 16.038 25.6232 15.9889 25.6754L16.0149 25.3242C16.0763 24.4754 16.1386 23.6249 16.2035 22.7756ZM20.4313 15.2895C17.8172 16.9382 15.203 18.5918 12.5876 20.2396C12.5345 20.2728 12.4766 20.2985 12.4174 20.3254C12.7597 21.4205 13.1024 22.5158 13.4438 23.6115C13.6878 24.3826 13.9409 25.1521 14.1719 25.9263C14.2671 26.2474 14.4322 26.4193 14.7806 26.3585C14.8771 25.0479 14.9698 23.7387 15.0685 22.4275C15.0799 22.2747 15.098 22.1197 15.1166 21.9665C14.9689 21.8817 15.0337 21.7194 15.085 21.6659C15.1752 21.5729 15.2657 21.478 15.3558 21.3837C15.3881 21.3537 15.4216 21.3233 15.453 21.2935C15.4982 21.2464 15.5422 21.1992 15.5871 21.1524C15.8035 20.9509 16.019 20.7458 16.2354 20.5437C16.3588 20.4272 16.4835 20.3102 16.6075 20.194C16.9432 19.8798 17.2783 19.5657 17.62 19.2565C18.4882 18.4674 19.3741 17.696 20.244 16.9101C21.353 15.9067 22.4595 14.8997 23.558 13.8849C23.6387 13.7729 23.6909 13.6286 23.7618 13.5052C23.565 13.5315 23.334 13.4989 23.1777 13.591C22.2525 14.1422 21.3428 14.7152 20.4313 15.2895ZM38 19C38 29.4935 29.4935 38 19 38C8.50654 38 0 29.4935 0 19C0 8.50573 8.50573 0 19 0C29.4935 0 38 8.50654 38 19ZM27.4839 11.4304C27.4737 11.3579 27.4668 11.2836 27.4522 11.2121C27.2848 10.4055 26.8431 10.1619 26.0518 10.4328C25.9357 10.4717 25.8167 10.4973 25.699 10.5293C25.2577 10.7115 24.821 10.9067 24.3733 11.0741C23.6313 11.3541 22.8818 11.6158 22.1335 11.8857C21.6773 12.0759 21.2241 12.2746 20.7638 12.4546C19.6102 12.9055 18.4547 13.3478 17.2992 13.7939C14.9215 14.7105 12.5434 15.6269 10.1637 16.5435C9.62929 16.7498 9.09046 16.9453 8.56178 17.1652C8.09698 17.3569 7.62235 17.543 7.19426 17.8005C7.00474 17.9144 6.79591 18.2138 6.81775 18.4039C6.83863 18.5956 7.13194 18.7599 7.31166 18.9314C7.34425 18.9627 7.40025 18.9725 7.4474 18.987C8.70791 19.3772 9.9685 19.7673 11.23 20.1565C11.223 20.2881 11.2382 20.4223 11.2793 20.5552L12.3406 23.9562C12.4114 24.1802 12.4826 24.4001 12.5522 24.6203C12.7237 25.1579 12.9019 25.7131 13.0639 26.2564C13.4167 27.4354 14.3684 27.5265 14.6519 27.5265C14.6939 27.5265 14.7389 27.5236 14.7835 27.522C14.8271 27.5239 14.8705 27.5252 14.9135 27.5252C15.6416 27.5252 16.1092 27.1243 16.3876 26.8842C16.4389 26.8392 16.4879 26.7981 16.5234 26.7709C16.5809 26.7279 16.6351 26.681 16.6812 26.6288C16.7176 26.5912 16.7505 26.5523 16.7866 26.5149C16.8451 26.4498 16.8999 26.3884 16.9486 26.3403C17.372 25.9211 17.7941 25.5034 18.2184 25.0851L18.7208 24.5893C18.7917 24.6384 18.8622 24.6868 18.9334 24.7355C20.0769 25.5892 21.2185 26.4469 22.3661 27.2961C23.2226 27.9293 23.8212 27.765 24.2357 26.7975C24.4123 25.9815 24.5876 25.1636 24.7628 24.3494C24.9233 23.5353 25.0821 22.7235 25.2409 21.911C25.3431 21.4645 25.4437 21.0168 25.5444 20.571C25.812 19.3136 26.0791 18.055 26.3455 16.7969C26.4322 16.3954 26.517 15.9945 26.603 15.593C26.6239 15.4978 26.6489 15.4019 26.6679 15.306C26.941 14.0145 27.2124 12.7229 27.4839 11.4304Z" fill="url(#paint0_linear_476_20)"/>
<defs>
<linearGradient id="paint0_linear_476_20" x1="35.4753" y1="34.1806" x2="2.83198" y2="1.6993" gradientUnits="userSpaceOnUse">
<stop stop-color="#2E36FD"/>
<stop offset="1" stop-color="#3CACCF"/>
</linearGradient>
</defs>
</svg>
