<svg width="17" height="32" viewBox="0 0 17 32" fill="none" xmlns="http://www.w3.org/2000/svg">
<path d="M12.0324 2.72713C12.0586 2.6865 12.0667 2.63583 12.0527 2.58918C12.0385 2.54186 12.0055 2.50324 11.9604 2.48248L6.55235 0.0150668C6.5065 -0.00502226 6.45524 -0.00502226 6.40939 0.0150668L1.00139 2.48248C0.956899 2.50324 0.922571 2.54186 0.90902 2.58918C0.894793 2.63583 0.902922 2.6865 0.929345 2.72713L4.0779 7.53111L0.00549257 23.0168C-0.00738008 23.0647 0.00278282 23.1154 0.0316891 23.1567L6.34256 31.9292C6.37485 31.9734 6.42612 32 6.48144 32C6.53677 32 6.58804 31.9734 6.62033 31.9292L12.93 23.1567C12.9589 23.1154 12.9684 23.0647 12.9562 23.0168L8.88383 7.53111L12.0324 2.72713Z" fill="#545454"/>
<path d="M16.9511 14.0314L11.0577 8.13768C11.0023 8.08165 10.914 8.07161 10.8465 8.1129C10.779 8.15353 10.7487 8.235 10.7743 8.30888L13.7212 17.0814C13.7442 17.1508 13.8095 17.1968 13.8824 17.1968H16.8299C16.9243 17.1968 17 17.1216 17 17.0287V14.1502C17.0004 14.1055 16.9828 14.0636 16.9512 14.0314L16.9511 14.0314Z" fill="#545454"/>
</svg>
